HIERARCHY
ROOT hip
{
  OFFSET 0 0 0
  CHANNELS 6 Xposition Yposition Zposition Zrotation Yrotation Xrotation
  JOINT abdomen
  {
    OFFSET 0 20.6881 -0.73152
    CHANNELS 3 Zrotation Xrotation Yrotation
    JOINT chest
    {
      OFFSET 0 11.7043 -0.48768
      CHANNELS 3 Zrotation Xrotation Yrotation
      JOINT neck
      {
        OFFSET 0 22.1894 -2.19456
        CHANNELS 3 Zrotation Xrotation Yrotation
        JOINT head
        {
          OFFSET -0.24384 7.07133 1.2192
          CHANNELS 3 Zrotation Xrotation Yrotation
          JOINT leftEye
          {
            OFFSET 4.14528 8.04674 8.04672
            CHANNELS 3 Zrotation Xrotation Yrotation
            End Site
            {
              OFFSET 1 0 0
            }
          }
          JOINT rightEye
          {
            OFFSET -3.6576 8.04674 8.04672
            CHANNELS 3 Zrotation Xrotation Yrotation
            End Site
            {
              OFFSET 1 0 0
            }
          }
        }
      }
      JOINT rCollar
      {
        OFFSET -2.68224 19.2634 -4.8768
        CHANNELS 3 Zrotation Xrotation Yrotation
        JOINT rShldr
        {
          OFFSET -8.77824 -1.95073 1.46304
          CHANNELS 3 Zrotation Xrotation Yrotation
          JOINT rForeArm
          {
            OFFSET -28.1742 -1.7115 0.48768
            CHANNELS 3 Zrotation Xrotation Yrotation
            JOINT rHand
            {
              OFFSET -22.5879 0.773209 7.07136
              CHANNELS 3 Zrotation Xrotation Yrotation
              JOINT rThumb1
              {
                OFFSET -1.2192 -0.487915 3.41376
                CHANNELS 3 Zrotation Xrotation Yrotation
                JOINT rThumb2
                {
                  OFFSET -3.37035 -0.52449 3.41376
                  CHANNELS 3 Zrotation Xrotation Yrotation
                  End Site
                  {
                    OFFSET -1.78271 -1.18214 1.43049
                  }
                }
              }
              JOINT rIndex1
              {
                OFFSET -7.75947 0.938293 5.60832
                CHANNELS 3 Zrotation Xrotation Yrotation
                JOINT rIndex2
                {
                  OFFSET -2.54057 -0.884171 1.56538
                  CHANNELS 3 Zrotation Xrotation Yrotation
                  End Site
                  {
                    OFFSET -1.62519 -0.234802 1.16502
                  }
                }
              }
              JOINT rMid1
              {
                OFFSET -8.24714 1.18213 3.41376
                CHANNELS 3 Zrotation Xrotation Yrotation
                JOINT rMid2
                {
                  OFFSET -3.10165 -0.590103 1.0647
                  CHANNELS 3 Zrotation Xrotation Yrotation
                  End Site
                  {
                    OFFSET -2.48547 -0.328903 0.83742
                  }
                }
              }
              JOINT rRing1
              {
                OFFSET -8.82822 0.546677 1.51678
                CHANNELS 3 Zrotation Xrotation Yrotation
                JOINT rRing2
                {
                  OFFSET -2.60934 -0.819778 -0.0198488
                  CHANNELS 3 Zrotation Xrotation Yrotation
                  End Site
                  {
                    OFFSET -2.33842 -0.294052 0.168128
                  }
                }
              }
              JOINT rPinky1
              {
                OFFSET -8.27202 -0.0477905 -0.4584
                CHANNELS 3 Zrotation Xrotation Yrotation
                JOINT rPinky2
                {
                  OFFSET -1.82734 -0.647385 -0.700984
                  CHANNELS 3 Zrotation Xrotation Yrotation
                  End Site
                  {
                    OFFSET -1.69225 -0.51767 -0.607171
                  }
                }
              }
            }
          }
        }
      }
      JOINT lCollar
      {
        OFFSET 2.68224 19.2634 -4.8768
        CHANNELS 3 Zrotation Xrotation Yrotation
        JOINT lShldr
        {
          OFFSET 8.77824 -1.95073 1.46304
          CHANNELS 3 Zrotation Xrotation Yrotation
          JOINT lForeArm
          {
            OFFSET 28.1742 -1.7115 0.48768
            CHANNELS 3 Zrotation Xrotation Yrotation
            JOINT lHand
            {
              OFFSET 22.5879 0.773209 7.07136
              CHANNELS 3 Zrotation Xrotation Yrotation
              JOINT lThumb1
              {
                OFFSET 1.2192 -0.487915 3.41376
                CHANNELS 3 Zrotation Xrotation Yrotation
                JOINT lThumb2
                {
                  OFFSET 3.37035 -0.52449 3.41376
                  CHANNELS 3 Zrotation Xrotation Yrotation
                  End Site
                  {
                    OFFSET 1.78271 -1.18214 1.43049
                  }
                }
              }
              JOINT lIndex1
              {
                OFFSET 7.75947 0.938293 5.60832
                CHANNELS 3 Zrotation Xrotation Yrotation
                JOINT lIndex2
                {
                  OFFSET 2.54057 -0.884171 1.56538
                  CHANNELS 3 Zrotation Xrotation Yrotation
                  End Site
                  {
                    OFFSET 1.62519 -0.234802 1.16502
                  }
                }
              }
              JOINT lMid1
              {
                OFFSET 8.24714 1.18213 3.41376
                CHANNELS 3 Zrotation Xrotation Yrotation
                JOINT lMid2
                {
                  OFFSET 3.10165 -0.590103 1.0647
                  CHANNELS 3 Zrotation Xrotation Yrotation
                  End Site
                  {
                    OFFSET 2.48547 -0.328903 0.83742
                  }
                }
              }
              JOINT lRing1
              {
                OFFSET 8.82822 0.546677 1.51678
                CHANNELS 3 Zrotation Xrotation Yrotation
                JOINT lRing2
                {
                  OFFSET 2.60934 -0.819778 -0.0198488
                  CHANNELS 3 Zrotation Xrotation Yrotation
                  End Site
                  {
                    OFFSET 2.33842 -0.294052 0.168128
                  }
                }
              }
              JOINT lPinky1
              {
                OFFSET 8.27202 -0.0477905 -0.4584
                CHANNELS 3 Zrotation Xrotation Yrotation
                JOINT lPinky2
                {
                  OFFSET 1.82734 -0.647385 -0.700984
                  CHANNELS 3 Zrotation Xrotation Yrotation
                  End Site
                  {
                    OFFSET 1.69225 -0.51767 -0.607171
                  }
                }
              }
            }
          }
        }
      }
    }
  }
  JOINT rButtock
  {
    OFFSET -8.77824 4.35084 1.2192
    CHANNELS 3 Zrotation Xrotation Yrotation
    JOINT rThigh
    {
      OFFSET 0 -1.70687 -2.19456
      CHANNELS 3 Zrotation Xrotation Yrotation
      JOINT rShin
      {
        OFFSET 0 -36.8199 0.73152
        CHANNELS 3 Zrotation Xrotation Yrotation
        JOINT rFoot
        {
          OFFSET 0.73152 -45.1104 -5.12064
          CHANNELS 3 Zrotation Xrotation Yrotation
          End Site
          {
            OFFSET -1.1221 -3.69964 12.103
          }
        }
      }
    }
  }
  JOINT lButtock
  {
    OFFSET 8.77824 4.35084 1.2192
    CHANNELS 3 Zrotation Xrotation Yrotation
    JOINT lThigh
    {
      OFFSET 0 -1.70687 -2.19456
      CHANNELS 3 Zrotation Xrotation Yrotation
      JOINT lShin
      {
        OFFSET 0 -36.8199 0.73152
        CHANNELS 3 Zrotation Xrotation Yrotation
        JOINT lFoot
        {
          OFFSET -0.73152 -45.1104 -5.12064
          CHANNELS 3 Zrotation Xrotation Yrotation
          End Site
          {
            OFFSET 1.1221 -3.69964 12.103
          }
        }
      }
    }
  }
}
MOTION
Frames:	8
Frame Time:	0.03333
0.0 0.0 0.0 0.0 0.0 0.0 0.0 0.0 0.0 0.0 0.0 0.0 0.0 0.0 0.0 0.0 0.0 0.0 0.0 0.0 0.0 0.0 0.0 0.0 0.0 0.0 0.0 0.0 0.0 0.0 0.0 0.0 0.0 0.0 0.0 0.0 0.0 0.0 0.0 0.0 0.0 0.0 0.0 0.0 0.0 0.0 0.0 0.0 0.0 0.0 0.0 0.0 0.0 0.0 0.0 0.0 0.0 0.0 0.0 0.0 0.0 0.0 0.0 0.0 0.0 0.0 0.0 0.0 0.0 0.0 0.0 0.0 0.0 0.0 0.0 0.0 0.0 0.0 0.0 0.0 0.0 0.0 0.0 0.0 0.0 0.0 0.0 0.0 0.0 0.0 0.0 0.0 0.0 0.0 0.0 0.0 0.0 0.0 0.0 0.0 0.0 0.0 0.0 0.0 0.0 0.0 0.0 0.0 0.0 0.0 0.0 0.0 0.0 0.0 0.0 0.0 0.0 0.0 0.0 0.0 0.0 0.0 0.0 0.0 0.0 0.0 0.0 0.0 0.0 0.0 0.0 0.0
-0.5396 64.2753 -0.46140000000000003 0.060371 -37.798268 -0.458193 -0.382476 4.786202 17.51382 3.489331 3.689886 -31.911322 -2.753195 -2.798148 -132.715302 48.504308 -7.254318 77.428349 130.465241 29.217794 -58.927231 -3.854406 -2.853307 73.013643 -65.242203 59.15629 147.105796 -155.75115 57.81645 157.406348 127.768069 -77.699068 48.481931 14.905039 -18.518874 147.457161 -81.594295 61.650743 -94.474268 118.441421 2.026133 -13.295859 -21.878042 -8.287648 -148.366578 178.124583 9.577018 82.510478 166.656312 20.57107 -93.409593 166.354829 43.703778 -172.704193 88.500315 26.033579 -88.950533 -10.334057 30.503855 -27.777674 97.37796 36.857435 -37.198953 -133.135082 25.17418 -120.169044 -63.424703 43.829453 -36.062396 -12.141275 15.104194 11.106083 -3.509557 63.877236 166.229457 -32.558579 41.36418 123.813647 -16.099624 8.719864 -35.273136 -82.539041 -40.652898 -119.456167 -164.140207 -3.510881 67.606583 -82.307864 69.739355 -32.704634 -2.65979 -52.008288 -71.01063 138.947939 57.586084 97.010155 67.722336 -3.152935 107.591413 -106.305898 -84.970916 -164.694367 105.868384 38.217484 81.601641 7.118589 -33.470682 52.500307 3.541261 -26.26236 -0.0 -4.164581 26.08932 -0.0 0.321753 6.558656 -171.852532 -75.132263 -0.066661 106.840999 30.528801 -21.96722 57.611989 0.486388 37.743571 2.720471 -1.830087 -6.217461 -17.979404 82.670915 11.72215 -98.392422
-1.2919999999999998 66.1758 -1.7384 -13.402725 77.464579 -5.789115 2.744019 7.789441 -0.258821 -0.219775 -8.051197 -7.911758 2.796409 20.357018 105.944822 -36.605478 15.231573 -106.743276 -42.518945 -11.645354 29.374047 74.071993 -11.891273 -15.71715 12.597086 -35.843785 12.59754 51.045072 -5.824084 -14.159334 175.606385 -19.519613 57.177116 -179.950878 -21.336929 154.654941 -3.412612 5.086015 -27.644143 -115.292193 -54.587021 72.142748 29.189166 -40.639521 -31.128388 115.900104 2.307403 68.263174 -140.363103 -13.148577 151.137638 17.385956 -24.132587 -3.985012 -139.354919 9.506404 -166.243896 -106.532606 -44.427511 -121.611249 -121.249177 5.464286 -95.264311 -139.159024 6.057184 -47.043655 40.6942 67.734159 -51.551329 101.045899 13.706254 -96.588122 97.053321 20.36362 113.286736 5.164056 -78.69044 26.78675 -172.847691 -64.874308 -81.879988 -7.19517 -11.201997 -15.875369 129.299704 -5.205853 -157.709488 9.681722 -82.980519 21.723406 -29.065079 -15.101148 7.747889 34.734412 69.306356 -12.531375 128.370633 -88.696604 139.996222 114.436507 -47.018189 139.511046 131.578256 -28.28921 98.257248 140.78958 22.277477 72.599178 -18.458381 -26.085139 -0.0 -3.314307 -21.38005 -9.026173 36.730384 55.122195 37.336081 -10.051894 23.931887 -72.459252 14.217826 -12.386541 -15.413655 14.245499 -16.089026 58.889472 33.81952 48.392327 52.963913 -22.428422 -68.182554 -128.367391
-2.344 54.478899999999996 -3.3556999999999997 4.701665 80.221398 13.672566 -3.128359 14.438967 6.341176 -2.056158 -17.424492 -13.44501 -15.155055 35.012753 -51.124419 37.460905 -14.352057 44.53971 -41.154391 -0.176389 0.469842 6.890644 -2.272827 -36.472867 -17.687645 39.347487 23.411609 104.970776 -47.455867 91.809065 -7.504195 14.782338 82.200414 7.929043 4.672791 8.430541 -112.290449 61.499403 47.700861 -134.383546 -22.777106 26.061288 -168.429546 -39.072232 163.999222 34.027835 -89.154488 -27.612917 -159.163046 0.828576 160.706815 -165.25629 39.707994 139.742909 -47.805132 20.895631 -34.733877 -114.592569 -67.750305 131.542409 -16.189563 -36.9337 -33.661255 23.548451 6.89206 46.614317 -2.522935 -61.41554 20.973705 11.779818 -56.210324 77.831597 -3.690848 -36.909946 128.790663 -172.348107 -4.443512 -135.525004 -119.97478 -41.28188 -76.256099 -69.08123 -43.379613 -63.58492 156.259981 -20.606557 -120.838743 82.960787 33.658042 -43.892091 146.983606 41.80966 -94.817854 -18.131569 -13.199453 -38.085253 177.86905 -3.076268 -157.434025 -78.132156 -34.105574 -139.276352 -89.120101 75.679178 61.908575 96.890806 -31.614193 22.572608 0.309067 87.109097 -180.0 151.526845 11.63766 69.597784 95.439306 44.149232 -177.22888 63.843985 59.698728 37.08997 64.493214 6.004878 24.90412 -36.187382 -26.172026 -77.433576 -81.541796 13.510432 179.636017 -175.224674 -38.241759 91.26323
-3.8566999999999996 55.08539999999999 -4.0839 1.803463 83.482993 5.609658 2.432558 19.392856 -0.712493 -10.664165 -11.608355 15.450244 11.468074 28.439968 -73.822985 37.665964 -16.93116 34.858892 -65.613468 3.435705 -5.327551 -19.736361 -1.3467 7.730235 36.823139 68.979273 -31.890638 -5.196426 -30.435059 50.199014 43.504067 77.626579 -167.179291 151.608251 2.120387 138.538833 -149.09084 48.082159 48.086687 53.574917 -38.356504 96.885095 99.692475 -41.390904 104.835508 136.713565 -31.682107 -154.780321 -5.868358 -28.818206 9.381489 -178.1619 45.723438 -169.895552 170.361755 2.128672 -150.832383 7.514761 54.103247 -48.40365 24.328002 -44.119101 -1.840068 -10.02354 -33.638755 87.846775 -4.242172 -26.626764 -9.857824 -80.607839 14.667095 -9.52652 -75.99939 39.700155 -43.11645 19.577664 56.921085 -4.791012 -164.740533 29.911046 -77.462852 158.866215 0.207509 -33.844975 147.484895 -9.781827 -110.998569 -108.245076 -17.339903 -71.923876 -78.362265 -86.763946 -73.963019 15.939094 49.225547 -1.1055 31.572286 -3.956255 1.689669 -65.654428 26.272067 -0.544682 129.136258 -2.133588 156.057576 12.72077 54.315457 -140.901118 -80.868405 52.533144 -42.153633 117.325873 -35.491614 -49.523995 -84.993271 -11.072006 26.258709 117.626591 27.561249 -26.146459 7.175744 -3.035458 -8.920168 35.329939 -19.121541 86.927601 75.788132 27.416606 -3.890282 -58.039591 42.87183 -40.246246
-4.8247 56.4365 -4.2604999999999995 -11.967908 85.486685 -7.737439 2.643548 22.402732 -0.906214 -7.383505 -13.311867 16.934259 11.606932 15.371176 -35.417392 17.673051 -30.715666 -3.385351 -75.1846 5.704712 -7.40558 -9.105467 -0.247016 3.101377 -2.561076 -8.559542 -35.723001 66.835169 -8.831257 33.771916 -11.360848 0.63859 103.038539 15.499115 18.710189 -16.89616 116.948569 -29.003784 104.090459 -177.137427 41.33612 158.621861 30.720969 -54.790227 59.702997 11.995137 30.366346 -132.220027 -14.920261 -49.501428 11.335112 100.780275 84.318 -85.83616 -67.197109 79.933851 83.6381 90.945886 86.827135 -84.863883 12.750299 65.554543 90.992117 -82.423249 17.272552 -45.469778 1.163221 -22.371667 -14.273318 -77.323538 26.375122 -17.240888 177.394094 -21.331193 -48.537518 -177.909334 -2.237455 -141.865816 154.022426 34.761234 -54.925161 -89.489207 -23.164407 -53.285833 -136.125619 -72.800639 -79.615309 0.262019 47.302658 17.566085 8.880791 -24.955706 18.189918 155.38846 -43.148357 -142.236725 149.364831 22.328889 -167.473322 -15.254962 29.698742 1.138336 122.564581 2.345728 161.487562 -159.352386 -66.447611 -66.442089 6.815978 12.919061 1.848792 -98.395193 -56.870504 82.95453 92.223841 -70.816733 -169.466719 156.2241 -1.77359 -61.499942 1.282888 -4.808368 0.617659 39.679405 -30.710265 93.301608 82.482739 25.361521 -164.033563 21.893909 7.614765 79.525503
-5.3263 54.18429999999999 -4.043900000000001 -13.921248 84.707214 -8.09668 -0.240803 26.106083 -25.129937 8.009396 -16.955204 38.520527 21.93407 22.048974 58.204512 -45.623081 -2.918238 -100.329613 -52.519522 -3.693417 7.478253 5.492053 0.008801 0.183487 -161.682083 18.298782 179.988364 -36.303992 -10.108599 -12.763574 -179.536683 -0.128793 -76.751547 3.066951 45.632084 -23.91209 167.962898 31.720521 90.247564 140.437484 -27.608763 145.415869 -24.917998 -24.691449 18.040434 -176.444829 51.659366 176.010671 -47.163851 -9.609883 -29.257842 -150.994738 -56.089316 91.676098 12.60018 -13.657522 1.1218 -148.572466 -25.393055 -176.882583 72.637442 -36.148354 18.363397 -177.531667 -19.327178 175.382709 -31.801859 -69.236967 -21.247383 -83.006122 22.402302 39.036637 -143.360272 -13.806186 -23.492114 162.461634 37.937277 -129.83151 103.329917 28.278847 -33.516561 172.775097 -64.438776 -65.694845 146.889483 -15.994623 -124.091427 24.221143 76.175807 -4.358068 8.189688 22.559374 5.319202 -138.939375 -52.235442 -96.907196 131.004216 8.955406 -169.437695 -40.05032 44.666999 -3.036949 8.167315 -72.032577 0.371317 174.995173 71.369206 -179.168654 -43.737716 15.780902 -21.80452 33.353316 -79.470004 33.022889 88.919477 51.994106 -53.810251 -15.518975 3.169334 -44.206365 -89.920053 47.066925 -55.779491 161.959931 24.025401 102.658805 88.330506 -3.589155 -95.926317 33.333788 -9.27976 12.53182
-5.612 52.8085 -3.6875999999999998 -2.392215 83.909387 3.478125 -5.965724 23.176371 -165.129851 -3.514905 17.142282 175.607181 10.754948 24.523952 28.595032 -41.488327 -25.980798 -83.622045 -16.635259 -4.734174 31.576041 18.898728 -0.352293 -2.116473 -155.92131 -25.027311 -179.432682 147.203941 44.307291 -144.908599 9.360626 0.485406 108.46887 -4.285785 43.422696 -19.289475 -171.637577 32.244798 79.444344 123.743012 -44.187205 135.798757 17.314302 -35.848891 7.552093 -11.552262 -27.073414 -3.278867 -154.488151 -55.288757 -143.797949 -114.32869 13.96087 -143.242072 -32.6959 63.715254 60.826988 66.722949 -35.353135 37.667116 -2.853601 68.409837 98.006498 154.471338 43.980045 -119.617184 -10.259216 -36.416662 -2.990151 96.133875 7.438544 173.134871 120.938908 -9.406072 37.98786 -16.354193 -61.611159 0.519177 -11.946972 -25.030414 -10.963612 25.309107 4.653774 31.468424 135.455116 13.069442 -123.979263 165.352252 -4.316829 -147.206117 -14.170804 -43.529576 7.725921 162.536375 -8.014804 -125.770616 41.752024 77.26264 -74.815167 87.816564 -48.339455 94.495312 120.899008 53.315309 -148.365313 150.125305 -29.337213 177.406632 0.044888 4.259155 -0.060888 -99.827036 -63.939233 79.632786 161.233905 -77.895379 93.232148 36.250903 56.841392 -133.600465 -0.244746 -5.811035 -2.415878 51.676392 -33.357087 66.509389 110.431021 61.143649 139.169242 69.091877 -31.102891 144.295014
